<?xml version="1.0" encoding="UTF-8" standalone="no"?>
<!DOCTYPE svg PUBLIC "-//W3C//DTD SVG 1.1//EN"
 "http://www.w3.org/Graphics/SVG/1.1/DTD/svg11.dtd">
<!-- Generated by graphviz version 3.0.0 (20220226.1711)
 -->
<!-- Title: G Pages: 1 -->
<svg width="1041pt" height="566pt"
 viewBox="0.00 0.00 1040.85 566.00" xmlns="http://www.w3.org/2000/svg" xmlns:xlink="http://www.w3.org/1999/xlink">
<g id="graph0" class="graph" transform="scale(1 1) rotate(0) translate(4 562)">
<title>G</title>
<polygon fill="white" stroke="transparent" points="-4,4 -4,-562 1036.85,-562 1036.85,4 -4,4"/>
<!-- q0 -->
<g id="node1" class="node">
<title>q0</title>
<ellipse fill="none" stroke="black" cx="442.85" cy="-540" rx="27" ry="18"/>
<text text-anchor="middle" x="442.85" y="-536.3" font-family="Times New Roman,serif" font-size="14.00">q0</text>
</g>
<!-- q1 -->
<g id="node2" class="node">
<title>q1</title>
<ellipse fill="none" stroke="black" cx="442.85" cy="-453" rx="27" ry="18"/>
<text text-anchor="middle" x="442.85" y="-449.3" font-family="Times New Roman,serif" font-size="14.00">q1</text>
</g>
<!-- q0&#45;&gt;q1 -->
<g id="edge1" class="edge">
<title>q0&#45;&gt;q1</title>
<path fill="none" stroke="black" d="M442.85,-521.8C442.85,-510.16 442.85,-494.55 442.85,-481.24"/>
<polygon fill="black" stroke="black" points="446.35,-481.18 442.85,-471.18 439.35,-481.18 446.35,-481.18"/>
<text text-anchor="middle" x="453.85" y="-492.8" font-family="Times New Roman,serif" font-size="14.00">i:=0</text>
</g>
<!-- q2 -->
<g id="node3" class="node">
<title>q2</title>
<ellipse fill="none" stroke="black" cx="442.85" cy="-366" rx="27" ry="18"/>
<text text-anchor="middle" x="442.85" y="-362.3" font-family="Times New Roman,serif" font-size="14.00">q2</text>
</g>
<!-- q1&#45;&gt;q2 -->
<g id="edge2" class="edge">
<title>q1&#45;&gt;q2</title>
<path fill="none" stroke="black" d="M442.85,-434.8C442.85,-423.16 442.85,-407.55 442.85,-394.24"/>
<polygon fill="black" stroke="black" points="446.35,-394.18 442.85,-384.18 439.35,-394.18 446.35,-394.18"/>
<text text-anchor="middle" x="455.35" y="-405.8" font-family="Times New Roman,serif" font-size="14.00">x:=0</text>
</g>
<!-- q3 -->
<g id="node4" class="node">
<title>q3</title>
<ellipse fill="none" stroke="black" cx="442.85" cy="-279" rx="27" ry="18"/>
<text text-anchor="middle" x="442.85" y="-275.3" font-family="Times New Roman,serif" font-size="14.00">q3</text>
</g>
<!-- q2&#45;&gt;q3 -->
<g id="edge3" class="edge">
<title>q2&#45;&gt;q3</title>
<path fill="none" stroke="black" d="M442.85,-347.8C442.85,-336.16 442.85,-320.55 442.85,-307.24"/>
<polygon fill="black" stroke="black" points="446.35,-307.18 442.85,-297.18 439.35,-307.18 446.35,-307.18"/>
<text text-anchor="middle" x="455.35" y="-318.8" font-family="Times New Roman,serif" font-size="14.00">y:=0</text>
</g>
<!-- q5 -->
<g id="node5" class="node">
<title>q5</title>
<ellipse fill="none" stroke="black" cx="82.85" cy="-192" rx="27" ry="18"/>
<text text-anchor="middle" x="82.85" y="-188.3" font-family="Times New Roman,serif" font-size="14.00">q5</text>
</g>
<!-- q3&#45;&gt;q5 -->
<g id="edge4" class="edge">
<title>q3&#45;&gt;q5</title>
<path fill="none" stroke="black" d="M415.84,-277.92C324.73,-277.37 32.76,-273.23 4.85,-243 -12.08,-224.66 20.18,-210.18 48.22,-201.62"/>
<polygon fill="black" stroke="black" points="49.23,-204.97 57.87,-198.84 47.29,-198.24 49.23,-204.97"/>
<text text-anchor="middle" x="108.85" y="-231.8" font-family="Times New Roman,serif" font-size="14.00">( ( n ) &gt; ( i ) ) &amp;&amp; ( ( A[i] ) &gt;= ( 0 ) )</text>
</g>
<!-- q8 -->
<g id="node8" class="node">
<title>q8</title>
<ellipse fill="none" stroke="black" cx="340.85" cy="-192" rx="27" ry="18"/>
<text text-anchor="middle" x="340.85" y="-188.3" font-family="Times New Roman,serif" font-size="14.00">q8</text>
</g>
<!-- q3&#45;&gt;q8 -->
<g id="edge8" class="edge">
<title>q3&#45;&gt;q8</title>
<path fill="none" stroke="black" d="M415.79,-277.9C362.39,-277.06 246.51,-271.87 221.85,-243 196.59,-213.42 260.3,-200.97 303.94,-196.01"/>
<polygon fill="black" stroke="black" points="304.41,-199.48 313.99,-194.96 303.68,-192.52 304.41,-199.48"/>
<text text-anchor="middle" x="321.35" y="-231.8" font-family="Times New Roman,serif" font-size="14.00">( ( n ) &gt; ( i ) ) &amp;&amp; ( ( 0 ) &gt; ( A[i] ) )</text>
</g>
<!-- q4 -->
<g id="node9" class="node">
<title>q4</title>
<ellipse fill="none" stroke="black" cx="505.85" cy="-192" rx="27" ry="18"/>
<text text-anchor="middle" x="505.85" y="-188.3" font-family="Times New Roman,serif" font-size="14.00">q4</text>
</g>
<!-- q3&#45;&gt;q4 -->
<g id="edge10" class="edge">
<title>q3&#45;&gt;q4</title>
<path fill="none" stroke="black" d="M460.83,-265.54C468.66,-259.44 477.49,-251.56 483.85,-243 489.16,-235.86 493.54,-227.23 496.94,-219.17"/>
<polygon fill="black" stroke="black" points="500.24,-220.35 500.62,-209.76 493.72,-217.8 500.24,-220.35"/>
<text text-anchor="middle" x="741.85" y="-231.8" font-family="Times New Roman,serif" font-size="14.00">( !( ( ( n ) &gt; ( i ) ) &amp;&amp; ( ( A[i] ) &gt;= ( 0 ) ) ) ) &amp; ( !( ( ( n ) &gt; ( i ) ) &amp;&amp; ( ( 0 ) &gt; ( A[i] ) ) ) )</text>
</g>
<!-- q6 -->
<g id="node6" class="node">
<title>q6</title>
<ellipse fill="none" stroke="black" cx="430.85" cy="-105" rx="27" ry="18"/>
<text text-anchor="middle" x="430.85" y="-101.3" font-family="Times New Roman,serif" font-size="14.00">q6</text>
</g>
<!-- q5&#45;&gt;q6 -->
<g id="edge5" class="edge">
<title>q5&#45;&gt;q6</title>
<path fill="none" stroke="black" d="M107.88,-184.89C168.93,-169.98 325.62,-131.7 395.87,-114.54"/>
<polygon fill="black" stroke="black" points="396.7,-117.94 405.58,-112.17 395.04,-111.14 396.7,-117.94"/>
<text text-anchor="middle" x="309.35" y="-144.8" font-family="Times New Roman,serif" font-size="14.00">x:=x + A[i]</text>
</g>
<!-- q7 -->
<g id="node7" class="node">
<title>q7</title>
<ellipse fill="none" stroke="black" cx="725.85" cy="-18" rx="27" ry="18"/>
<text text-anchor="middle" x="725.85" y="-14.3" font-family="Times New Roman,serif" font-size="14.00">q7</text>
</g>
<!-- q6&#45;&gt;q7 -->
<g id="edge6" class="edge">
<title>q6&#45;&gt;q7</title>
<path fill="none" stroke="black" d="M452.48,-93.88C458.08,-91.45 464.13,-88.99 469.85,-87 547.08,-60.08 640.56,-37.75 690.44,-26.62"/>
<polygon fill="black" stroke="black" points="691.39,-29.99 700.4,-24.41 689.88,-23.16 691.39,-29.99"/>
<text text-anchor="middle" x="597.85" y="-57.8" font-family="Times New Roman,serif" font-size="14.00">y:=y + 1</text>
</g>
<!-- q7&#45;&gt;q3 -->
<g id="edge7" class="edge">
<title>q7&#45;&gt;q3</title>
<path fill="none" stroke="black" d="M749.88,-26.58C831.18,-53.34 1086,-146.97 995.85,-243 960.66,-280.49 598.55,-279.77 480.11,-278.52"/>
<polygon fill="black" stroke="black" points="480.11,-275.02 470.07,-278.4 480.03,-282.02 480.11,-275.02"/>
<text text-anchor="middle" x="1012.85" y="-144.8" font-family="Times New Roman,serif" font-size="14.00">i:=i + 1</text>
</g>
<!-- q8&#45;&gt;q3 -->
<g id="edge9" class="edge">
<title>q8&#45;&gt;q3</title>
<path fill="none" stroke="black" d="M365.99,-198.81C383.31,-203.95 405.83,-213.01 420.85,-228 427.32,-234.45 432.03,-243.13 435.4,-251.44"/>
<polygon fill="black" stroke="black" points="432.1,-252.62 438.75,-260.87 438.7,-250.28 432.1,-252.62"/>
<text text-anchor="middle" x="451.85" y="-231.8" font-family="Times New Roman,serif" font-size="14.00">i:=i + 1</text>
</g>
<!-- q -->
<g id="node10" class="node">
<title>q</title>
<ellipse fill="none" stroke="black" cx="505.85" cy="-105" rx="27" ry="18"/>
<text text-anchor="middle" x="505.85" y="-101.3" font-family="Times New Roman,serif" font-size="14.00">q</text>
</g>
<!-- q4&#45;&gt;q -->
<g id="edge11" class="edge">
<title>q4&#45;&gt;q</title>
<path fill="none" stroke="black" d="M505.85,-173.8C505.85,-162.16 505.85,-146.55 505.85,-133.24"/>
<polygon fill="black" stroke="black" points="509.35,-133.18 505.85,-123.18 502.35,-133.18 509.35,-133.18"/>
</g>
<!-- &#45;1 -->
<g id="node11" class="node">
<title>&#45;1</title>
<ellipse fill="none" stroke="black" cx="525.85" cy="-540" rx="38.19" ry="18"/>
<text text-anchor="middle" x="525.85" y="-536.3" font-family="Times New Roman,serif" font-size="14.00">x:=x / y</text>
</g>
</g>
</svg>
