<?xml version="1.0" encoding="UTF-8" standalone="no"?>
<!DOCTYPE svg PUBLIC "-//W3C//DTD SVG 1.1//EN"
 "http://www.w3.org/Graphics/SVG/1.1/DTD/svg11.dtd">
<!-- Generated by graphviz version 3.0.0 (20220226.1711)
 -->
<!-- Title: G Pages: 1 -->
<svg width="457pt" height="392pt"
 viewBox="0.00 0.00 457.20 392.00" xmlns="http://www.w3.org/2000/svg" xmlns:xlink="http://www.w3.org/1999/xlink">
<g id="graph0" class="graph" transform="scale(1 1) rotate(0) translate(4 388)">
<title>G</title>
<polygon fill="white" stroke="transparent" points="-4,4 -4,-388 453.2,-388 453.2,4 -4,4"/>
<!-- q0 -->
<g id="node1" class="node">
<title>q0</title>
<ellipse fill="none" stroke="black" cx="98.2" cy="-366" rx="27" ry="18"/>
<text text-anchor="middle" x="98.2" y="-362.3" font-family="Times New Roman,serif" font-size="14.00">q0</text>
</g>
<!-- q1 -->
<g id="node2" class="node">
<title>q1</title>
<ellipse fill="none" stroke="black" cx="98.2" cy="-279" rx="27" ry="18"/>
<text text-anchor="middle" x="98.2" y="-275.3" font-family="Times New Roman,serif" font-size="14.00">q1</text>
</g>
<!-- q0&#45;&gt;q1 -->
<g id="edge1" class="edge">
<title>q0&#45;&gt;q1</title>
<path fill="none" stroke="black" d="M98.2,-347.8C98.2,-336.16 98.2,-320.55 98.2,-307.24"/>
<polygon fill="black" stroke="black" points="101.7,-307.18 98.2,-297.18 94.7,-307.18 101.7,-307.18"/>
<text text-anchor="middle" x="136.2" y="-318.8" font-family="Times New Roman,serif" font-size="14.00">y:=11.000000</text>
</g>
<!-- q2 -->
<g id="node3" class="node">
<title>q2</title>
<ellipse fill="none" stroke="black" cx="98.2" cy="-192" rx="27" ry="18"/>
<text text-anchor="middle" x="98.2" y="-188.3" font-family="Times New Roman,serif" font-size="14.00">q2</text>
</g>
<!-- q1&#45;&gt;q2 -->
<g id="edge2" class="edge">
<title>q1&#45;&gt;q2</title>
<path fill="none" stroke="black" d="M98.2,-260.8C98.2,-249.16 98.2,-233.55 98.2,-220.24"/>
<polygon fill="black" stroke="black" points="101.7,-220.18 98.2,-210.18 94.7,-220.18 101.7,-220.18"/>
<text text-anchor="middle" x="136.2" y="-231.8" font-family="Times New Roman,serif" font-size="14.00">x:=10.000000</text>
</g>
<!-- q3 -->
<g id="node4" class="node">
<title>q3</title>
<ellipse fill="none" stroke="black" cx="32.2" cy="-105" rx="27" ry="18"/>
<text text-anchor="middle" x="32.2" y="-101.3" font-family="Times New Roman,serif" font-size="14.00">q3</text>
</g>
<!-- q2&#45;&gt;q3 -->
<g id="edge3" class="edge">
<title>q2&#45;&gt;q3</title>
<path fill="none" stroke="black" d="M71.47,-189.21C49.11,-186.14 18.48,-177.92 3.2,-156 -3.19,-146.83 1.47,-136.18 8.77,-127.07"/>
<polygon fill="black" stroke="black" points="11.5,-129.27 15.66,-119.53 6.33,-124.55 11.5,-129.27"/>
<text text-anchor="middle" x="87.7" y="-144.8" font-family="Times New Roman,serif" font-size="14.00">( ( x ) &gt;= ( y ) ) &amp; ( !( false ) )</text>
</g>
<!-- q4 -->
<g id="node6" class="node">
<title>q4</title>
<ellipse fill="none" stroke="black" cx="164.2" cy="-105" rx="27" ry="18"/>
<text text-anchor="middle" x="164.2" y="-101.3" font-family="Times New Roman,serif" font-size="14.00">q4</text>
</g>
<!-- q2&#45;&gt;q4 -->
<g id="edge5" class="edge">
<title>q2&#45;&gt;q4</title>
<path fill="none" stroke="black" d="M123.82,-186.21C140.73,-181.57 161.63,-172.69 172.2,-156 176.63,-149 176.72,-140.38 175.06,-132.28"/>
<polygon fill="black" stroke="black" points="178.36,-131.09 172.21,-122.46 171.63,-133.04 178.36,-131.09"/>
<text text-anchor="middle" x="312.2" y="-144.8" font-family="Times New Roman,serif" font-size="14.00">( ( y ) &gt; ( x ) ) &amp; ( !( ( ( x ) &gt;= ( y ) ) | ( false ) ) )</text>
</g>
<!-- q1000000 -->
<g id="node5" class="node">
<title>q1000000</title>
<ellipse fill="none" stroke="black" cx="98.2" cy="-18" rx="46.29" ry="18"/>
<text text-anchor="middle" x="98.2" y="-14.3" font-family="Times New Roman,serif" font-size="14.00">q1000000</text>
</g>
<!-- q3&#45;&gt;q1000000 -->
<g id="edge4" class="edge">
<title>q3&#45;&gt;q1000000</title>
<path fill="none" stroke="black" d="M44,-88.8C53.73,-76.27 67.73,-58.24 79.07,-43.65"/>
<polygon fill="black" stroke="black" points="82.01,-45.56 85.38,-35.52 76.48,-41.27 82.01,-45.56"/>
<text text-anchor="middle" x="81.7" y="-57.8" font-family="Times New Roman,serif" font-size="14.00">z:=x</text>
</g>
<!-- q4&#45;&gt;q1000000 -->
<g id="edge6" class="edge">
<title>q4&#45;&gt;q1000000</title>
<path fill="none" stroke="black" d="M152.4,-88.8C142.67,-76.27 128.67,-58.24 117.34,-43.65"/>
<polygon fill="black" stroke="black" points="119.92,-41.27 111.03,-35.52 114.39,-45.56 119.92,-41.27"/>
<text text-anchor="middle" x="146.7" y="-57.8" font-family="Times New Roman,serif" font-size="14.00">z:=y</text>
</g>
</g>
</svg>
