<?xml version="1.0" encoding="UTF-8" standalone="no"?>
<!DOCTYPE svg PUBLIC "-//W3C//DTD SVG 1.1//EN"
 "http://www.w3.org/Graphics/SVG/1.1/DTD/svg11.dtd">
<!-- Generated by graphviz version 3.0.0 (20220226.1711)
 -->
<!-- Title: G Pages: 1 -->
<svg width="250pt" height="305pt"
 viewBox="0.00 0.00 250.00 305.00" xmlns="http://www.w3.org/2000/svg" xmlns:xlink="http://www.w3.org/1999/xlink">
<g id="graph0" class="graph" transform="scale(1 1) rotate(0) translate(4 301)">
<title>G</title>
<polygon fill="white" stroke="transparent" points="-4,4 -4,-301 246,-301 246,4 -4,4"/>
<!-- q0 -->
<g id="node1" class="node">
<title>q0</title>
<ellipse fill="none" stroke="black" cx="106" cy="-279" rx="27" ry="18"/>
<text text-anchor="middle" x="106" y="-275.3" font-family="Times New Roman,serif" font-size="14.00">q0</text>
</g>
<!-- q1 -->
<g id="node2" class="node">
<title>q1</title>
<ellipse fill="none" stroke="black" cx="106" cy="-192" rx="27" ry="18"/>
<text text-anchor="middle" x="106" y="-188.3" font-family="Times New Roman,serif" font-size="14.00">q1</text>
</g>
<!-- q0&#45;&gt;q1 -->
<g id="edge1" class="edge">
<title>q0&#45;&gt;q1</title>
<path fill="none" stroke="black" d="M106,-260.8C106,-249.16 106,-233.55 106,-220.24"/>
<polygon fill="black" stroke="black" points="109.5,-220.18 106,-210.18 102.5,-220.18 109.5,-220.18"/>
<text text-anchor="middle" x="118.5" y="-231.8" font-family="Times New Roman,serif" font-size="14.00">y:=1</text>
</g>
<!-- q2 -->
<g id="node3" class="node">
<title>q2</title>
<ellipse fill="none" stroke="black" cx="27" cy="-105" rx="27" ry="18"/>
<text text-anchor="middle" x="27" y="-101.3" font-family="Times New Roman,serif" font-size="14.00">q2</text>
</g>
<!-- q1&#45;&gt;q2 -->
<g id="edge2" class="edge">
<title>q1&#45;&gt;q2</title>
<path fill="none" stroke="black" d="M81.57,-183.93C67.14,-178.54 49.65,-169.66 39,-156 33.96,-149.54 30.99,-141.28 29.26,-133.35"/>
<polygon fill="black" stroke="black" points="32.68,-132.6 27.62,-123.29 25.77,-133.72 32.68,-132.6"/>
<text text-anchor="middle" x="70.5" y="-144.8" font-family="Times New Roman,serif" font-size="14.00">( x ) &gt; ( 0 )</text>
</g>
<!-- q&#45;1 -->
<g id="node5" class="node">
<title>q&#45;1</title>
<ellipse fill="none" stroke="black" cx="106" cy="-105" rx="27" ry="18"/>
<text text-anchor="middle" x="106" y="-101.3" font-family="Times New Roman,serif" font-size="14.00">q&#45;1</text>
</g>
<!-- q1&#45;&gt;q&#45;1 -->
<g id="edge5" class="edge">
<title>q1&#45;&gt;q&#45;1</title>
<path fill="none" stroke="black" d="M106,-173.8C106,-162.16 106,-146.55 106,-133.24"/>
<polygon fill="black" stroke="black" points="109.5,-133.18 106,-123.18 102.5,-133.18 109.5,-133.18"/>
<text text-anchor="middle" x="148" y="-144.8" font-family="Times New Roman,serif" font-size="14.00">!( ( x ) &gt; ( 0 ) )</text>
</g>
<!-- q3 -->
<g id="node4" class="node">
<title>q3</title>
<ellipse fill="none" stroke="black" cx="116" cy="-18" rx="27" ry="18"/>
<text text-anchor="middle" x="116" y="-14.3" font-family="Times New Roman,serif" font-size="14.00">q3</text>
</g>
<!-- q2&#45;&gt;q3 -->
<g id="edge3" class="edge">
<title>q2&#45;&gt;q3</title>
<path fill="none" stroke="black" d="M42.1,-89.58C56.25,-76.07 77.58,-55.7 93.69,-40.31"/>
<polygon fill="black" stroke="black" points="96.31,-42.64 101.13,-33.21 91.48,-37.58 96.31,-42.64"/>
<text text-anchor="middle" x="99" y="-57.8" font-family="Times New Roman,serif" font-size="14.00">y:=x * y</text>
</g>
<!-- q3&#45;&gt;q1 -->
<g id="edge4" class="edge">
<title>q3&#45;&gt;q1</title>
<path fill="none" stroke="black" d="M133.15,-32.3C163.3,-57.31 219.97,-112.74 191,-156 180.16,-172.18 160.34,-180.89 142.56,-185.57"/>
<polygon fill="black" stroke="black" points="141.38,-182.25 132.41,-187.89 142.94,-189.08 141.38,-182.25"/>
<text text-anchor="middle" x="220" y="-101.3" font-family="Times New Roman,serif" font-size="14.00">x:=x &#45; 1</text>
</g>
</g>
</svg>
